<svg width="237" height="66" viewBox="0 0 237 66" fill="none" xmlns="http://www.w3.org/2000/svg">
<g clip-path="url(#clip0_5_856)">
<path d="M230.285 66H6.71484C3.01121 66 0 62.9646 0 59.2312V6.76881C0 3.03542 3.01121 0 6.71484 0H230.285C233.989 0 237 3.03542 237 6.76881V59.2312C237 62.9646 233.989 66 230.285 66Z" fill="#FFDD2D"/>
<path d="M20.1445 17.4819H53.7187V34.5095C53.7187 38.8759 51.416 42.9015 47.6641 45.0929L36.9397 51.3422L26.2153 45.0929C22.4633 42.9177 20.1606 38.8759 20.1606 34.5095V17.4819H20.1445Z" fill="white"/>
<path fill-rule="evenodd" clip-rule="evenodd" d="M29.3555 26.4421V31.7338C30.0801 30.9222 31.3844 30.3703 32.8659 30.3703H34.4922V36.5223C34.4922 38.1618 34.0575 39.5902 33.3973 40.3856H40.4502C39.79 39.5902 39.3553 38.1618 39.3553 36.5223V30.3703H40.9816C42.4792 30.3703 43.7835 30.9222 44.492 31.7338V26.4421H29.3555Z" fill="#333333"/>
<path d="M205.567 25.6467V27.0589C210.881 27.1726 214.053 29.4288 214.053 33.4057C214.053 37.3826 210.881 39.4603 205.567 39.5902V41.0024H201.364V39.5902C196.082 39.4765 192.91 37.3988 192.91 33.4057C192.91 29.4288 196.082 27.1726 201.364 27.0589V25.6467H205.567ZM201.364 36.6034V30.0781C198.466 30.1917 197.177 31.539 197.177 33.4219C197.177 35.2886 198.466 36.4898 201.364 36.6034ZM205.567 30.0781V36.6034C208.498 36.4898 209.754 35.2886 209.754 33.4057C209.754 31.539 208.514 30.1917 205.567 30.0781Z" fill="#333333"/>
<path d="M183.087 25.6467V27.0589C188.401 27.1726 191.574 29.4288 191.574 33.4057C191.574 37.3826 188.401 39.4603 183.087 39.5902V41.0024H178.885V39.5902C173.603 39.4765 170.431 37.3988 170.431 33.4057C170.431 29.4288 173.603 27.1726 178.885 27.0589V25.6467H183.087ZM178.868 36.6034V30.0781C175.97 30.1917 174.682 31.539 174.682 33.4219C174.698 35.2886 175.97 36.4898 178.868 36.6034ZM183.087 30.0781V36.6034C186.018 36.4898 187.274 35.2886 187.274 33.4057C187.274 31.539 186.018 30.1917 183.087 30.0781Z" fill="#333333"/>
<path d="M160.029 26.0688C165.665 26.0688 169.062 29.2828 169.062 33.4383C169.062 37.5937 165.665 40.8077 160.029 40.8077C154.361 40.8077 150.963 37.5937 150.963 33.4383C150.979 29.2828 154.377 26.0688 160.029 26.0688ZM160.029 37.4151C162.814 37.4151 164.65 35.7108 164.65 33.4383C164.65 31.1495 162.814 29.4938 160.029 29.4938C157.211 29.4938 155.407 31.1657 155.407 33.4383C155.407 35.727 157.211 37.4151 160.029 37.4151Z" fill="#333333"/>
<path d="M140.737 35.11H139.578V40.3855H135.375V26.4583H139.578V31.7012H140.737L145.826 26.4583H151.107L144.376 33.1134L151.381 40.3692H145.777L140.737 35.11Z" fill="#333333"/>
<path d="M126.953 40.3855H118.419V26.4583H122.638V30.1917H126.969C128.016 30.1917 129.111 30.2241 130.045 30.565C131.994 31.2954 133.217 32.9024 133.217 35.2236C133.217 37.6584 131.8 39.444 129.61 40.0608C128.773 40.2881 127.903 40.3855 126.953 40.3855ZM126.213 33.4705H122.606V37.0092H126.213C126.937 37.0092 127.404 37.0092 127.871 36.7981C128.531 36.506 128.95 35.8891 128.95 35.1587C128.95 34.4607 128.548 33.8764 127.839 33.6329C127.356 33.4705 126.792 33.4705 126.213 33.4705Z" fill="#333333"/>
<path d="M111.012 35.1913H104.249V40.3693H100.046V26.4421H104.249V31.539H111.012V26.4421H115.215V40.3693H111.012V35.1913Z" fill="#333333"/>
<path d="M85.8591 34.5582L93.1214 26.4421H96.8411V40.3693H92.6383V32.2533L85.376 40.3693H81.6562V26.4421H85.8591V34.5582Z" fill="#333333"/>
<path d="M73.9273 40.3855H69.5635V30.1754H63.5732V26.4583H79.9014V30.1754H73.9273V40.3855Z" fill="#333333"/>
</g>
<defs>
<clipPath id="clip0_5_856">
<rect width="237" height="66" fill="white"/>
</clipPath>
</defs>
</svg>
